<?xml version="1.0" encoding="utf-8"?>
<!-- Generator: Adobe Illustrator 26.5.0, SVG Export Plug-In . SVG Version: 6.00 Build 0)  -->
<svg version="1.1" id="Layer_1" xmlns="http://www.w3.org/2000/svg" xmlns:xlink="http://www.w3.org/1999/xlink" x="0px" y="0px"
	 viewBox="0 0 448 512" style="enable-background:new 0 0 448 512;" xml:space="preserve">
<style type="text/css">
	.st0{fill:#FFFFFF;}
</style>
<path class="st0" d="M0,216C0,149.7,53.7,96,120,96h8c17.7,0,32,14.3,32,32s-14.3,32-32,32h-8c-30.9,0-56,25.1-56,56v8h64
	c35.3,0,64,28.7,64,64v64c0,35.3-28.7,64-64,64H64c-35.3,0-64-28.7-64-64v-32v-32V216z M256,216c0-66.3,53.7-120,120-120h8
	c17.7,0,32,14.3,32,32s-14.3,32-32,32h-8c-30.9,0-56,25.1-56,56v8h64c35.3,0,64,28.7,64,64v64c0,35.3-28.7,64-64,64h-64
	c-35.3,0-64-28.7-64-64v-32v-32V216z"/>
</svg>
